<svg xmlns="http://www.w3.org/2000/svg" width="32" height="32" viewBox="0 0 32 32">
  <path id="icon-settings" d="M16,0A16.123,16.123,0,0,0,13.3.233l-.43,4.549a11.536,11.536,0,0,0-2.577,1.063l-3.517-2.9A16.075,16.075,0,0,0,2.934,6.769l2.912,3.516a11.576,11.576,0,0,0-1.07,2.577l-4.543.432a15.9,15.9,0,0,0,0,5.423l4.543.429a11.578,11.578,0,0,0,1.07,2.577L2.942,25.238a16.091,16.091,0,0,0,3.822,3.828l3.524-2.911a11.541,11.541,0,0,0,2.577,1.07l.43,4.549a16.325,16.325,0,0,0,5.41,0l.43-4.549a11.54,11.54,0,0,0,2.577-1.07l3.524,2.911a16.088,16.088,0,0,0,3.822-3.828l-2.905-3.516a11.576,11.576,0,0,0,1.07-2.577l4.543-.429a15.849,15.849,0,0,0,0-5.415l-4.543-.429a11.578,11.578,0,0,0-1.07-2.577L29.066,6.78a16.072,16.072,0,0,0-3.837-3.828l-3.517,2.9a11.536,11.536,0,0,0-2.577-1.063L18.705.244A16.036,16.036,0,0,0,16,.011Zm0,9.906A6.092,6.092,0,1,1,9.91,16,6.088,6.088,0,0,1,16,9.906Z" transform="translate(0)" fill="#fff"/>
</svg>
